{
  "asset": {
    "version": "2.0",
    "generator": "Sketchup glTF Exporter v1.2.6 by Centaur"
  },
  "scene": 0,
  "scenes": [
    {
      "nodes": [
        0
      ]
    }
  ],
  "samplers": [
    {
    }
  ],
  "nodes": [
    {
      "name": "root",
      "children": [
        1
      ]
    },
    {
      "children": [
        2,
        3,
        6,
        7,
        8
      ],
      "mesh": 7
    },
    {
      "mesh": 0
    },
    {
      "children": [
        4,
        5
      ],
      "mesh": 3
    },
    {
      "mesh": 1
    },
    {
      "mesh": 2
    },
    {
      "mesh": 4
    },
    {
      "mesh": 5
    },
    {
      "mesh": 6
    }
  ],
  "materials": [
    {
      "pbrMetallicRoughness": {
        "baseColorFactor": [
          1.0,
          1.0,
          1.0,
          1.0
        ],
        "metallicFactor": 0.1,
        "roughnessFactor": 0.9
      },
      "name": "Colore M00"
    },
    {
      "pbrMetallicRoughness": {
        "baseColorFactor": [
          0.1332,
          0.0,
          0.0,
          1.0
        ],
        "metallicFactor": 0.1,
        "roughnessFactor": 0.9
      },
      "name": "Colore A08"
    },
    {
      "pbrMetallicRoughness": {
        "baseColorFactor": [
          0.1332,
          0.009,
          0.0037,
          1.0
        ],
        "metallicFactor": 0.1,
        "roughnessFactor": 0.9
      },
      "name": "Materiale26",
      "doubleSided": true
    },
    {
      "pbrMetallicRoughness": {
        "baseColorFactor": [
          0.2758,
          0.0824,
          0.0564,
          1.0
        ],
        "metallicFactor": 0.1,
        "roughnessFactor": 0.9
      },
      "name": "Materiale24"
    },
    {
      "pbrMetallicRoughness": {
        "baseColorFactor": [
          0.7667,
          0.7667,
          0.7667,
          1.0
        ],
        "metallicFactor": 0.1,
        "roughnessFactor": 0.9
      },
      "name": "Colore M01",
      "doubleSided": true
    },
    {
      "pbrMetallicRoughness": {
        "baseColorFactor": [
          0.0104,
          0.0104,
          0.0104,
          1.0
        ],
        "metallicFactor": 0.1,
        "roughnessFactor": 0.9
      },
      "name": "STEPS_DEFAULT_0",
      "doubleSided": true
    },
    {
      "pbrMetallicRoughness": {
        "baseColorFactor": [
          0.2176,
          0.2176,
          0.2176,
          1.0
        ],
        "metallicFactor": 0.1,
        "roughnessFactor": 0.9
      },
      "name": "default material",
      "doubleSided": true
    },
    {
      "pbrMetallicRoughness": {
        "baseColorFactor": [
          0.5732,
          0.5732,
          0.5732,
          1.0
        ],
        "metallicFactor": 0.1,
        "roughnessFactor": 0.9
      },
      "name": "Colore M02",
      "doubleSided": true
    },
    {
      "pbrMetallicRoughness": {
        "baseColorFactor": [
          0.2195,
          0.2195,
          0.2195,
          1.0
        ],
        "metallicFactor": 0.1,
        "roughnessFactor": 0.9
      },
      "name": "0132_GrigioChiaro",
      "doubleSided": true
    },
    {
      "pbrMetallicRoughness": {
        "baseColorTexture": {
          "index": 0
        },
        "metallicFactor": 0.1,
        "roughnessFactor": 0.9
      },
      "name": "Materiale36",
      "doubleSided": true
    },
    {
      "pbrMetallicRoughness": {
        "baseColorTexture": {
          "index": 1
        },
        "metallicFactor": 0.1,
        "roughnessFactor": 0.9
      },
      "name": "Materiale32",
      "doubleSided": true
    },
    {
      "pbrMetallicRoughness": {
        "baseColorTexture": {
          "index": 2
        },
        "metallicFactor": 0.1,
        "roughnessFactor": 0.9
      },
      "name": "Materiale38",
      "doubleSided": true
    },
    {
      "pbrMetallicRoughness": {
        "baseColorFactor": [
          0.142,
          0.142,
          0.142,
          1.0
        ],
        "metallicFactor": 0.1,
        "roughnessFactor": 0.9
      },
      "name": "0134_GrigioMedio",
      "doubleSided": true
    },
    {
      "pbrMetallicRoughness": {
        "baseColorTexture": {
          "index": 3
        },
        "metallicFactor": 0.1,
        "roughnessFactor": 0.9
      },
      "name": "Materiale42",
      "doubleSided": true
    },
    {
      "pbrMetallicRoughness": {
        "baseColorFactor": [
          0.4535,
          0.0119,
          0.0119,
          1.0
        ],
        "metallicFactor": 0.1,
        "roughnessFactor": 0.9
      },
      "name": "0023_Mattone",
      "doubleSided": true
    }
  ],
  "images": [
    {
      "bufferView": 0,
      "mimeType": "image/png"
    },
    {
      "bufferView": 1,
      "mimeType": "image/png"
    },
    {
      "bufferView": 2,
      "mimeType": "image/png"
    },
    {
      "bufferView": 3,
      "mimeType": "image/png"
    }
  ],
  "textures": [
    {
      "source": 0,
      "sampler": 0
    },
    {
      "source": 1,
      "sampler": 0
    },
    {
      "source": 2,
      "sampler": 0
    },
    {
      "source": 3,
      "sampler": 0
    }
  ],
  "meshes": [
    {
      "primitives": [
        {
          "attributes": {
            "POSITION": 0,
            "NORMAL": 1
          },
          "indices": 5,
          "mode": 4,
          "material": 2
        },
        {
          "attributes": {
            "POSITION": 0,
            "NORMAL": 1
          },
          "indices": 6,
          "mode": 4,
          "material": 3
        },
        {
          "attributes": {
            "POSITION": 0,
            "NORMAL": 1
          },
          "indices": 7,
          "mode": 4,
          "material": 4
        },
        {
          "attributes": {
            "POSITION": 0,
            "NORMAL": 1
          },
          "indices": 8,
          "mode": 4,
          "material": 5
        },
        {
          "attributes": {
            "POSITION": 0,
            "NORMAL": 1
          },
          "indices": 9,
          "mode": 4,
          "material": 6
        },
        {
          "attributes": {
            "POSITION": 0,
            "NORMAL": 1
          },
          "indices": 10,
          "mode": 4,
          "material": 7
        }
      ]
    },
    {
      "primitives": [
        {
          "attributes": {
            "POSITION": 0,
            "NORMAL": 1
          },
          "indices": 11,
          "mode": 4,
          "material": 8
        },
        {
          "attributes": {
            "POSITION": 0,
            "NORMAL": 1
          },
          "indices": 12,
          "mode": 4,
          "material": 6
        },
        {
          "attributes": {
            "POSITION": 0,
            "NORMAL": 1
          },
          "indices": 13,
          "mode": 4,
          "material": 4
        },
        {
          "attributes": {
            "POSITION": 2,
            "NORMAL": 3,
            "TEXCOORD_0": 4
          },
          "indices": 14,
          "mode": 4,
          "material": 9
        },
        {
          "attributes": {
            "POSITION": 2,
            "NORMAL": 3,
            "TEXCOORD_0": 4
          },
          "indices": 15,
          "mode": 4,
          "material": 10
        },
        {
          "attributes": {
            "POSITION": 2,
            "NORMAL": 3,
            "TEXCOORD_0": 4
          },
          "indices": 16,
          "mode": 4,
          "material": 11
        },
        {
          "attributes": {
            "POSITION": 0,
            "NORMAL": 1
          },
          "indices": 17,
          "mode": 4,
          "material": 12
        }
      ]
    },
    {
      "primitives": [
        {
          "attributes": {
            "POSITION": 0,
            "NORMAL": 1
          },
          "indices": 18,
          "mode": 4,
          "material": 8
        },
        {
          "attributes": {
            "POSITION": 2,
            "NORMAL": 3,
            "TEXCOORD_0": 4
          },
          "indices": 19,
          "mode": 4,
          "material": 11
        },
        {
          "attributes": {
            "POSITION": 2,
            "NORMAL": 3,
            "TEXCOORD_0": 4
          },
          "indices": 20,
          "mode": 4,
          "material": 9
        },
        {
          "attributes": {
            "POSITION": 2,
            "NORMAL": 3,
            "TEXCOORD_0": 4
          },
          "indices": 21,
          "mode": 4,
          "material": 10
        },
        {
          "attributes": {
            "POSITION": 0,
            "NORMAL": 1
          },
          "indices": 22,
          "mode": 4,
          "material": 6
        }
      ]
    },
    {
      "primitives": [
        {
          "attributes": {
            "POSITION": 0,
            "NORMAL": 1
          },
          "indices": 23,
          "mode": 4,
          "material": 6
        },
        {
          "attributes": {
            "POSITION": 0,
            "NORMAL": 1
          },
          "indices": 24,
          "mode": 4,
          "material": 8
        },
        {
          "attributes": {
            "POSITION": 2,
            "NORMAL": 3,
            "TEXCOORD_0": 4
          },
          "indices": 25,
          "mode": 4,
          "material": 13
        }
      ]
    },
    {
      "primitives": [
        {
          "attributes": {
            "POSITION": 0,
            "NORMAL": 1
          },
          "indices": 26,
          "mode": 4,
          "material": 6
        }
      ]
    },
    {
      "primitives": [
        {
          "attributes": {
            "POSITION": 0,
            "NORMAL": 1
          },
          "indices": 27,
          "mode": 4,
          "material": 14
        }
      ]
    },
    {
      "primitives": [
        {
          "attributes": {
            "POSITION": 0,
            "NORMAL": 1
          },
          "indices": 28,
          "mode": 4,
          "material": 2
        },
        {
          "attributes": {
            "POSITION": 0,
            "NORMAL": 1
          },
          "indices": 29,
          "mode": 4,
          "material": 3
        },
        {
          "attributes": {
            "POSITION": 0,
            "NORMAL": 1
          },
          "indices": 30,
          "mode": 4,
          "material": 4
        },
        {
          "attributes": {
            "POSITION": 0,
            "NORMAL": 1
          },
          "indices": 31,
          "mode": 4,
          "material": 5
        },
        {
          "attributes": {
            "POSITION": 0,
            "NORMAL": 1
          },
          "indices": 32,
          "mode": 4,
          "material": 6
        },
        {
          "attributes": {
            "POSITION": 0,
            "NORMAL": 1
          },
          "indices": 33,
          "mode": 4,
          "material": 7
        }
      ]
    },
    {
      "primitives": [
        {
          "attributes": {
            "POSITION": 0,
            "NORMAL": 1
          },
          "indices": 34,
          "mode": 4,
          "material": 0
        },
        {
          "attributes": {
            "POSITION": 0,
            "NORMAL": 1
          },
          "indices": 35,
          "mode": 4,
          "material": 1
        }
      ]
    }
  ],
  "accessors": [
    {
      "bufferView": 4,
      "componentType": 5126,
      "count": 18956,
      "type": "VEC3",
      "min": [
        -0.0005639999994513346,
        0.0,
        -1133.3219040000065
      ],
      "max": [
        928.8910257092894,
        832.0520371425537,
        1.371702135968768e-12
      ]
    },
    {
      "bufferView": 5,
      "componentType": 5126,
      "count": 18956,
      "type": "VEC3",
      "min": [
        -1.0,
        -1.0,
        -1.0
      ],
      "max": [
        1.0,
        1.0,
        1.0
      ]
    },
    {
      "bufferView": 6,
      "componentType": 5126,
      "count": 391,
      "type": "VEC3",
      "min": [
        142.1066832725916,
        79.05134896278817,
        -934.9087983907588
      ],
      "max": [
        299.26924211561845,
        123.8147067711202,
        -231.95199244350096
      ]
    },
    {
      "bufferView": 7,
      "componentType": 5126,
      "count": 391,
      "type": "VEC3",
      "min": [
        -0.999490388566313,
        -1.3500286042170636e-06,
        -0.8846993038641546
      ],
      "max": [
        0.9999786926888279,
        -7.439446504485072e-07,
        0.8907101532484837
      ]
    },
    {
      "bufferView": 8,
      "componentType": 5126,
      "count": 391,
      "type": "VEC2",
      "min": [
        74.6394354920372,
        -12.60060657441287
      ],
      "max": [
        3993.4372323260436,
        -1.9991270961860668
      ]
    },
    {
      "bufferView": 9,
      "componentType": 5123,
      "count": 17709,
      "type": "SCALAR"
    },
    {
      "bufferView": 9,
      "componentType": 5123,
      "count": 129,
      "type": "SCALAR",
      "byteOffset": 35418
    },
    {
      "bufferView": 9,
      "componentType": 5123,
      "count": 174,
      "type": "SCALAR",
      "byteOffset": 35676
    },
    {
      "bufferView": 9,
      "componentType": 5123,
      "count": 132,
      "type": "SCALAR",
      "byteOffset": 36024
    },
    {
      "bufferView": 9,
      "componentType": 5123,
      "count": 147,
      "type": "SCALAR",
      "byteOffset": 36288
    },
    {
      "bufferView": 9,
      "componentType": 5123,
      "count": 279,
      "type": "SCALAR",
      "byteOffset": 36582
    },
    {
      "bufferView": 9,
      "componentType": 5123,
      "count": 2463,
      "type": "SCALAR",
      "byteOffset": 37140
    },
    {
      "bufferView": 9,
      "componentType": 5123,
      "count": 180,
      "type": "SCALAR",
      "byteOffset": 42066
    },
    {
      "bufferView": 9,
      "componentType": 5123,
      "count": 45,
      "type": "SCALAR",
      "byteOffset": 42426
    },
    {
      "bufferView": 10,
      "componentType": 5123,
      "count": 156,
      "type": "SCALAR"
    },
    {
      "bufferView": 10,
      "componentType": 5123,
      "count": 84,
      "type": "SCALAR",
      "byteOffset": 312
    },
    {
      "bufferView": 10,
      "componentType": 5123,
      "count": 84,
      "type": "SCALAR",
      "byteOffset": 480
    },
    {
      "bufferView": 9,
      "componentType": 5123,
      "count": 9,
      "type": "SCALAR",
      "byteOffset": 42516
    },
    {
      "bufferView": 9,
      "componentType": 5123,
      "count": 1617,
      "type": "SCALAR",
      "byteOffset": 42534
    },
    {
      "bufferView": 10,
      "componentType": 5123,
      "count": 84,
      "type": "SCALAR",
      "byteOffset": 648
    },
    {
      "bufferView": 10,
      "componentType": 5123,
      "count": 156,
      "type": "SCALAR",
      "byteOffset": 816
    },
    {
      "bufferView": 10,
      "componentType": 5123,
      "count": 84,
      "type": "SCALAR",
      "byteOffset": 1128
    },
    {
      "bufferView": 9,
      "componentType": 5123,
      "count": 93,
      "type": "SCALAR",
      "byteOffset": 45768
    },
    {
      "bufferView": 9,
      "componentType": 5123,
      "count": 21,
      "type": "SCALAR",
      "byteOffset": 45954
    },
    {
      "bufferView": 9,
      "componentType": 5123,
      "count": 594,
      "type": "SCALAR",
      "byteOffset": 45996
    },
    {
      "bufferView": 10,
      "componentType": 5123,
      "count": 15,
      "type": "SCALAR",
      "byteOffset": 1296
    },
    {
      "bufferView": 9,
      "componentType": 5123,
      "count": 102,
      "type": "SCALAR",
      "byteOffset": 47184
    },
    {
      "bufferView": 9,
      "componentType": 5123,
      "count": 1275,
      "type": "SCALAR",
      "byteOffset": 47388
    },
    {
      "bufferView": 9,
      "componentType": 5123,
      "count": 17709,
      "type": "SCALAR",
      "byteOffset": 49938
    },
    {
      "bufferView": 9,
      "componentType": 5123,
      "count": 129,
      "type": "SCALAR",
      "byteOffset": 85356
    },
    {
      "bufferView": 9,
      "componentType": 5123,
      "count": 174,
      "type": "SCALAR",
      "byteOffset": 85614
    },
    {
      "bufferView": 9,
      "componentType": 5123,
      "count": 132,
      "type": "SCALAR",
      "byteOffset": 85962
    },
    {
      "bufferView": 9,
      "componentType": 5123,
      "count": 147,
      "type": "SCALAR",
      "byteOffset": 86226
    },
    {
      "bufferView": 9,
      "componentType": 5123,
      "count": 279,
      "type": "SCALAR",
      "byteOffset": 86520
    },
    {
      "bufferView": 9,
      "componentType": 5123,
      "count": 5568,
      "type": "SCALAR",
      "byteOffset": 87078
    },
    {
      "bufferView": 9,
      "componentType": 5123,
      "count": 246,
      "type": "SCALAR",
      "byteOffset": 98214
    }
  ],
  "bufferViews": [
    {
      "buffer": 0,
      "byteLength": 5843
    },
    {
      "buffer": 0,
      "byteOffset": 5843,
      "byteLength": 16667
    },
    {
      "buffer": 0,
      "byteOffset": 22510,
      "byteLength": 3060
    },
    {
      "buffer": 0,
      "byteOffset": 25570,
      "byteLength": 44077
    },
    {
      "buffer": 0,
      "byteOffset": 69648,
      "byteLength": 227472,
      "target": 34962,
      "byteStride": 12
    },
    {
      "buffer": 0,
      "byteOffset": 297120,
      "byteLength": 227472,
      "target": 34962,
      "byteStride": 12
    },
    {
      "buffer": 0,
      "byteOffset": 524592,
      "byteLength": 4692,
      "target": 34962,
      "byteStride": 12
    },
    {
      "buffer": 0,
      "byteOffset": 529284,
      "byteLength": 4692,
      "target": 34962,
      "byteStride": 12
    },
    {
      "buffer": 0,
      "byteOffset": 533976,
      "byteLength": 3128,
      "target": 34962,
      "byteStride": 8
    },
    {
      "buffer": 0,
      "byteOffset": 537104,
      "byteLength": 98706,
      "target": 34963
    },
    {
      "buffer": 0,
      "byteOffset": 635810,
      "byteLength": 1326,
      "target": 34963
    }
  ],
  "buffers": [
    {
      "uri": "data:application/octet-stream;base64,",
      "byteLength": 637136
    }
  ]
}