{
  "asset": {
    "version": "2.0",
    "generator": "Sketchup glTF Exporter v1.2.6 by Centaur"
  },
  "scene": 0,
  "scenes": [
    {
      "nodes": [
        0
      ]
    }
  ],
  "samplers": [
    {
    }
  ],
  "nodes": [
    {
      "name": "root",
      "children": [
        1,
        2,
        3,
        4,
        5,
        6,
        7,
        8,
        9,
        10,
        11,
        12,
        13,
        14,
        15,
        16,
        17,
        18,
        19,
        20,
        21,
        22,
        23,
        24
      ]
    },
    {
      "mesh": 0
    },
    {
      "mesh": 1
    },
    {
      "mesh": 2
    },
    {
      "mesh": 3
    },
    {
      "mesh": 4
    },
    {
      "mesh": 5
    },
    {
      "mesh": 6
    },
    {
      "mesh": 7
    },
    {
      "mesh": 8
    },
    {
      "mesh": 9
    },
    {
      "mesh": 10
    },
    {
      "mesh": 11
    },
    {
      "mesh": 12
    },
    {
      "mesh": 13
    },
    {
      "mesh": 14
    },
    {
      "mesh": 15
    },
    {
      "mesh": 16
    },
    {
      "mesh": 17
    },
    {
      "mesh": 18
    },
    {
      "mesh": 19
    },
    {
      "mesh": 20
    },
    {
      "mesh": 21
    },
    {
      "mesh": 22
    },
    {
      "mesh": 23
    }
  ],
  "materials": [
    {
      "pbrMetallicRoughness": {
        "baseColorFactor": [
          0.0119,
          0.2632,
          0.0119,
          1.0
        ],
        "metallicFactor": 0.1,
        "roughnessFactor": 0.9
      },
      "name": "0075_VerdeBosco",
      "doubleSided": true
    },
    {
      "pbrMetallicRoughness": {
        "baseColorFactor": [
          0.0,
          0.0,
          0.2632,
          1.0
        ],
        "metallicFactor": 0.1,
        "roughnessFactor": 0.9
      },
      "name": "0106_BluScuro",
      "doubleSided": true
    },
    {
      "pbrMetallicRoughness": {
        "baseColorFactor": [
          1.0,
          1.0,
          1.0,
          1.0
        ],
        "metallicFactor": 0.1,
        "roughnessFactor": 0.9
      },
      "name": "Bianco",
      "doubleSided": true
    },
    {
      "pbrMetallicRoughness": {
        "baseColorFactor": [
          0.2176,
          0.2176,
          0.2176,
          1.0
        ],
        "metallicFactor": 0.1,
        "roughnessFactor": 0.9
      },
      "name": "default material",
      "doubleSided": true
    },
    {
      "pbrMetallicRoughness": {
        "baseColorFactor": [
          1.0,
          0.6121,
          0.0278,
          1.0
        ],
        "metallicFactor": 0.1,
        "roughnessFactor": 0.9
      },
      "name": "Colore D04",
      "doubleSided": true
    },
    {
      "pbrMetallicRoughness": {
        "baseColorFactor": [
          1.0,
          0.5295,
          0.0,
          1.0
        ],
        "metallicFactor": 0.1,
        "roughnessFactor": 0.9
      },
      "name": "Colore D05",
      "doubleSided": true
    },
    {
      "pbrMetallicRoughness": {
        "baseColorFactor": [
          1.0,
          0.325,
          0.0278,
          1.0
        ],
        "metallicFactor": 0.1,
        "roughnessFactor": 0.9
      },
      "name": "Colore C04",
      "doubleSided": true
    },
    {
      "pbrMetallicRoughness": {
        "baseColorFactor": [
          0.8277,
          0.0,
          0.0,
          1.0
        ],
        "metallicFactor": 0.1,
        "roughnessFactor": 0.9
      },
      "name": "Materiale2",
      "doubleSided": true
    },
    {
      "pbrMetallicRoughness": {
        "baseColorFactor": [
          0.0,
          0.0,
          0.0,
          1.0
        ],
        "metallicFactor": 0.1,
        "roughnessFactor": 0.9
      },
      "name": "0137_Nero",
      "doubleSided": true
    },
    {
      "pbrMetallicRoughness": {
        "baseColorFactor": [
          0.3736,
          0.0,
          0.0,
          1.0
        ],
        "metallicFactor": 0.1,
        "roughnessFactor": 0.9
      },
      "name": "Materiale4",
      "doubleSided": true
    },
    {
      "pbrMetallicRoughness": {
        "baseColorFactor": [
          0.4995,
          0.0,
          0.0,
          1.0
        ],
        "metallicFactor": 0.1,
        "roughnessFactor": 0.9
      },
      "name": "Materiale3",
      "doubleSided": true
    },
    {
      "pbrMetallicRoughness": {
        "baseColorFactor": [
          0.3587,
          0.0254,
          0.0119,
          1.0
        ],
        "metallicFactor": 0.1,
        "roughnessFactor": 0.9
      },
      "name": "Materiale",
      "doubleSided": true
    },
    {
      "pbrMetallicRoughness": {
        "baseColorFactor": [
          0.8751,
          0.9406,
          1.0,
          1.0
        ],
        "metallicFactor": 0.1,
        "roughnessFactor": 0.9
      },
      "name": "0093_BluAlice",
      "doubleSided": true
    },
    {
      "pbrMetallicRoughness": {
        "baseColorFactor": [
          0.3736,
          0.0,
          0.0,
          0.3
        ],
        "metallicFactor": 0.1,
        "roughnessFactor": 0.9
      },
      "name": "Materiale9",
      "alphaMode": "BLEND"
    }
  ],
  "meshes": [
    {
      "primitives": [
        {
          "attributes": {
            "POSITION": 0,
            "NORMAL": 1
          },
          "indices": 2,
          "mode": 4,
          "material": 0
        },
        {
          "attributes": {
            "POSITION": 0,
            "NORMAL": 1
          },
          "indices": 3,
          "mode": 4,
          "material": 1
        },
        {
          "attributes": {
            "POSITION": 0,
            "NORMAL": 1
          },
          "indices": 4,
          "mode": 4,
          "material": 2
        },
        {
          "attributes": {
            "POSITION": 0,
            "NORMAL": 1
          },
          "indices": 5,
          "mode": 4,
          "material": 3
        },
        {
          "attributes": {
            "POSITION": 0,
            "NORMAL": 1
          },
          "indices": 6,
          "mode": 4,
          "material": 4
        },
        {
          "attributes": {
            "POSITION": 0,
            "NORMAL": 1
          },
          "indices": 7,
          "mode": 4,
          "material": 5
        },
        {
          "attributes": {
            "POSITION": 0,
            "NORMAL": 1
          },
          "indices": 8,
          "mode": 4,
          "material": 6
        },
        {
          "attributes": {
            "POSITION": 0,
            "NORMAL": 1
          },
          "indices": 9,
          "mode": 4,
          "material": 7
        },
        {
          "attributes": {
            "POSITION": 0,
            "NORMAL": 1
          },
          "indices": 10,
          "mode": 4,
          "material": 8
        },
        {
          "attributes": {
            "POSITION": 0,
            "NORMAL": 1
          },
          "indices": 11,
          "mode": 4,
          "material": 9
        },
        {
          "attributes": {
            "POSITION": 0,
            "NORMAL": 1
          },
          "indices": 12,
          "mode": 4,
          "material": 10
        }
      ]
    },
    {
      "primitives": [
        {
          "attributes": {
            "POSITION": 0,
            "NORMAL": 1
          },
          "indices": 13,
          "mode": 4,
          "material": 11
        }
      ]
    },
    {
      "primitives": [
        {
          "attributes": {
            "POSITION": 0,
            "NORMAL": 1
          },
          "indices": 14,
          "mode": 4,
          "material": 1
        },
        {
          "attributes": {
            "POSITION": 0,
            "NORMAL": 1
          },
          "indices": 15,
          "mode": 4,
          "material": 12
        }
      ]
    },
    {
      "primitives": [
        {
          "attributes": {
            "POSITION": 0,
            "NORMAL": 1
          },
          "indices": 16,
          "mode": 4,
          "material": 13
        }
      ]
    },
    {
      "primitives": [
        {
          "attributes": {
            "POSITION": 0,
            "NORMAL": 1
          },
          "indices": 17,
          "mode": 4,
          "material": 13
        }
      ]
    },
    {
      "primitives": [
        {
          "attributes": {
            "POSITION": 0,
            "NORMAL": 1
          },
          "indices": 18,
          "mode": 4,
          "material": 13
        }
      ]
    },
    {
      "primitives": [
        {
          "attributes": {
            "POSITION": 0,
            "NORMAL": 1
          },
          "indices": 19,
          "mode": 4,
          "material": 13
        }
      ]
    },
    {
      "primitives": [
        {
          "attributes": {
            "POSITION": 0,
            "NORMAL": 1
          },
          "indices": 20,
          "mode": 4,
          "material": 13
        }
      ]
    },
    {
      "primitives": [
        {
          "attributes": {
            "POSITION": 0,
            "NORMAL": 1
          },
          "indices": 21,
          "mode": 4,
          "material": 13
        }
      ]
    },
    {
      "primitives": [
        {
          "attributes": {
            "POSITION": 0,
            "NORMAL": 1
          },
          "indices": 22,
          "mode": 4,
          "material": 13
        }
      ]
    },
    {
      "primitives": [
        {
          "attributes": {
            "POSITION": 0,
            "NORMAL": 1
          },
          "indices": 23,
          "mode": 4,
          "material": 13
        }
      ]
    },
    {
      "primitives": [
        {
          "attributes": {
            "POSITION": 0,
            "NORMAL": 1
          },
          "indices": 24,
          "mode": 4,
          "material": 13
        }
      ]
    },
    {
      "primitives": [
        {
          "attributes": {
            "POSITION": 0,
            "NORMAL": 1
          },
          "indices": 25,
          "mode": 4,
          "material": 13
        }
      ]
    },
    {
      "primitives": [
        {
          "attributes": {
            "POSITION": 0,
            "NORMAL": 1
          },
          "indices": 26,
          "mode": 4,
          "material": 13
        }
      ]
    },
    {
      "primitives": [
        {
          "attributes": {
            "POSITION": 0,
            "NORMAL": 1
          },
          "indices": 27,
          "mode": 4,
          "material": 13
        }
      ]
    },
    {
      "primitives": [
        {
          "attributes": {
            "POSITION": 0,
            "NORMAL": 1
          },
          "indices": 28,
          "mode": 4,
          "material": 13
        }
      ]
    },
    {
      "primitives": [
        {
          "attributes": {
            "POSITION": 0,
            "NORMAL": 1
          },
          "indices": 29,
          "mode": 4,
          "material": 13
        }
      ]
    },
    {
      "primitives": [
        {
          "attributes": {
            "POSITION": 0,
            "NORMAL": 1
          },
          "indices": 30,
          "mode": 4,
          "material": 13
        }
      ]
    },
    {
      "primitives": [
        {
          "attributes": {
            "POSITION": 0,
            "NORMAL": 1
          },
          "indices": 31,
          "mode": 4,
          "material": 13
        }
      ]
    },
    {
      "primitives": [
        {
          "attributes": {
            "POSITION": 0,
            "NORMAL": 1
          },
          "indices": 32,
          "mode": 4,
          "material": 13
        }
      ]
    },
    {
      "primitives": [
        {
          "attributes": {
            "POSITION": 0,
            "NORMAL": 1
          },
          "indices": 33,
          "mode": 4,
          "material": 13
        }
      ]
    },
    {
      "primitives": [
        {
          "attributes": {
            "POSITION": 0,
            "NORMAL": 1
          },
          "indices": 34,
          "mode": 4,
          "material": 13
        }
      ]
    },
    {
      "primitives": [
        {
          "attributes": {
            "POSITION": 0,
            "NORMAL": 1
          },
          "indices": 35,
          "mode": 4,
          "material": 13
        }
      ]
    },
    {
      "primitives": [
        {
          "attributes": {
            "POSITION": 0,
            "NORMAL": 1
          },
          "indices": 36,
          "mode": 4,
          "material": 13
        }
      ]
    }
  ],
  "accessors": [
    {
      "bufferView": 0,
      "componentType": 5126,
      "count": 29945,
      "type": "VEC3",
      "min": [
        -30.84451709843065,
        -34.47193100170846,
        -31.090755717119634
      ],
      "max": [
        34.66035738395185,
        31.032943513232215,
        31.151587341921207
      ]
    },
    {
      "bufferView": 1,
      "componentType": 5126,
      "count": 29945,
      "type": "VEC3",
      "min": [
        -1.0,
        -1.0,
        -1.0
      ],
      "max": [
        1.0,
        1.0,
        1.0
      ]
    },
    {
      "bufferView": 2,
      "componentType": 5123,
      "count": 582,
      "type": "SCALAR"
    },
    {
      "bufferView": 2,
      "componentType": 5123,
      "count": 156,
      "type": "SCALAR",
      "byteOffset": 1164
    },
    {
      "bufferView": 2,
      "componentType": 5123,
      "count": 879,
      "type": "SCALAR",
      "byteOffset": 1476
    },
    {
      "bufferView": 2,
      "componentType": 5123,
      "count": 7350,
      "type": "SCALAR",
      "byteOffset": 3234
    },
    {
      "bufferView": 2,
      "componentType": 5123,
      "count": 1929,
      "type": "SCALAR",
      "byteOffset": 17934
    },
    {
      "bufferView": 2,
      "componentType": 5123,
      "count": 1155,
      "type": "SCALAR",
      "byteOffset": 21792
    },
    {
      "bufferView": 2,
      "componentType": 5123,
      "count": 252,
      "type": "SCALAR",
      "byteOffset": 24102
    },
    {
      "bufferView": 2,
      "componentType": 5123,
      "count": 594,
      "type": "SCALAR",
      "byteOffset": 24606
    },
    {
      "bufferView": 2,
      "componentType": 5123,
      "count": 870,
      "type": "SCALAR",
      "byteOffset": 25794
    },
    {
      "bufferView": 2,
      "componentType": 5123,
      "count": 3075,
      "type": "SCALAR",
      "byteOffset": 27534
    },
    {
      "bufferView": 2,
      "componentType": 5123,
      "count": 315,
      "type": "SCALAR",
      "byteOffset": 33684
    },
    {
      "bufferView": 2,
      "componentType": 5123,
      "count": 2124,
      "type": "SCALAR",
      "byteOffset": 34314
    },
    {
      "bufferView": 2,
      "componentType": 5123,
      "count": 960,
      "type": "SCALAR",
      "byteOffset": 38562
    },
    {
      "bufferView": 2,
      "componentType": 5123,
      "count": 960,
      "type": "SCALAR",
      "byteOffset": 40482
    },
    {
      "bufferView": 2,
      "componentType": 5123,
      "count": 2124,
      "type": "SCALAR",
      "byteOffset": 42402
    },
    {
      "bufferView": 2,
      "componentType": 5123,
      "count": 2124,
      "type": "SCALAR",
      "byteOffset": 46650
    },
    {
      "bufferView": 2,
      "componentType": 5123,
      "count": 2124,
      "type": "SCALAR",
      "byteOffset": 50898
    },
    {
      "bufferView": 2,
      "componentType": 5123,
      "count": 2124,
      "type": "SCALAR",
      "byteOffset": 55146
    },
    {
      "bufferView": 2,
      "componentType": 5123,
      "count": 2124,
      "type": "SCALAR",
      "byteOffset": 59394
    },
    {
      "bufferView": 2,
      "componentType": 5123,
      "count": 2124,
      "type": "SCALAR",
      "byteOffset": 63642
    },
    {
      "bufferView": 2,
      "componentType": 5123,
      "count": 2124,
      "type": "SCALAR",
      "byteOffset": 67890
    },
    {
      "bufferView": 2,
      "componentType": 5123,
      "count": 2124,
      "type": "SCALAR",
      "byteOffset": 72138
    },
    {
      "bufferView": 2,
      "componentType": 5123,
      "count": 2124,
      "type": "SCALAR",
      "byteOffset": 76386
    },
    {
      "bufferView": 2,
      "componentType": 5123,
      "count": 2124,
      "type": "SCALAR",
      "byteOffset": 80634
    },
    {
      "bufferView": 2,
      "componentType": 5123,
      "count": 2124,
      "type": "SCALAR",
      "byteOffset": 84882
    },
    {
      "bufferView": 2,
      "componentType": 5123,
      "count": 2124,
      "type": "SCALAR",
      "byteOffset": 89130
    },
    {
      "bufferView": 2,
      "componentType": 5123,
      "count": 2124,
      "type": "SCALAR",
      "byteOffset": 93378
    },
    {
      "bufferView": 2,
      "componentType": 5123,
      "count": 2124,
      "type": "SCALAR",
      "byteOffset": 97626
    },
    {
      "bufferView": 2,
      "componentType": 5123,
      "count": 2124,
      "type": "SCALAR",
      "byteOffset": 101874
    },
    {
      "bufferView": 2,
      "componentType": 5123,
      "count": 2124,
      "type": "SCALAR",
      "byteOffset": 106122
    },
    {
      "bufferView": 2,
      "componentType": 5123,
      "count": 2124,
      "type": "SCALAR",
      "byteOffset": 110370
    },
    {
      "bufferView": 2,
      "componentType": 5123,
      "count": 2124,
      "type": "SCALAR",
      "byteOffset": 114618
    },
    {
      "bufferView": 2,
      "componentType": 5123,
      "count": 2124,
      "type": "SCALAR",
      "byteOffset": 118866
    },
    {
      "bufferView": 2,
      "componentType": 5123,
      "count": 2124,
      "type": "SCALAR",
      "byteOffset": 123114
    },
    {
      "bufferView": 2,
      "componentType": 5123,
      "count": 2124,
      "type": "SCALAR",
      "byteOffset": 127362
    }
  ],
  "bufferViews": [
    {
      "buffer": 0,
      "byteLength": 359340,
      "target": 34962,
      "byteStride": 12
    },
    {
      "buffer": 0,
      "byteOffset": 359340,
      "byteLength": 359340,
      "target": 34962,
      "byteStride": 12
    },
    {
      "buffer": 0,
      "byteOffset": 718680,
      "byteLength": 131610,
      "target": 34963
    }
  ],
  "buffers": [
    {
      "uri": "data:application/octet-stream;base64,",
      "byteLength": 850290
    }
  ]
}