{
    "accessors" : [
        {
            "bufferView" : 0,
            "componentType" : 5123,
            "count" : 792,
            "max" : [
                633
            ],
            "min" : [
                0
            ],
            "type" : "SCALAR"
        },
        {
            "bufferView" : 1,
            "componentType" : 5126,
            "count" : 634,
            "max" : [
                948.8082275390625,
                0.0005333035951480269,
                1315.4906005859375
            ],
            "min" : [
                -1019.6953125,
                -1968.5040283203125,
                -653.0152587890625
            ],
            "type" : "VEC3"
        },
        {
            "bufferView" : 2,
            "componentType" : 5126,
            "count" : 634,
            "max" : [
                1.0,
                1.0,
                1.0
            ],
            "min" : [
                -1.0,
                -1.0,
                -1.0
            ],
            "type" : "VEC3"
        },
        {
            "bufferView" : 3,
            "componentType" : 5123,
            "count" : 3024,
            "max" : [
                1793
            ],
            "min" : [
                0
            ],
            "type" : "SCALAR"
        },
        {
            "bufferView" : 4,
            "componentType" : 5126,
            "count" : 1794,
            "max" : [
                1009.7144775390625,
                60.906517028808594,
                1376.395263671875
            ],
            "min" : [
                -1080.600830078125,
                -2029.4091796875,
                -713.9207763671875
            ],
            "type" : "VEC3"
        },
        {
            "bufferView" : 5,
            "componentType" : 5126,
            "count" : 1794,
            "max" : [
                1.0,
                1.0,
                1.0
            ],
            "min" : [
                -1.0,
                -1.0,
                -1.0
            ],
            "type" : "VEC3"
        },
        {
            "bufferView" : 6,
            "componentType" : 5123,
            "count" : 2304,
            "max" : [
                1320
            ],
            "min" : [
                0
            ],
            "type" : "SCALAR"
        },
        {
            "bufferView" : 7,
            "componentType" : 5126,
            "count" : 1321,
            "max" : [
                1009.7144775390625,
                60.906517028808594,
                1315.4906005859375
            ],
            "min" : [
                -1080.600830078125,
                -2029.4091796875,
                -713.9207763671875
            ],
            "type" : "VEC3"
        },
        {
            "bufferView" : 8,
            "componentType" : 5126,
            "count" : 1321,
            "max" : [
                1.0,
                1.0,
                1.0
            ],
            "min" : [
                -1.0,
                -1.0,
                -1.0
            ],
            "type" : "VEC3"
        }
    ],
    "asset" : {
        "generator" : "Khronos Blender glTF 2.0 exporter",
        "version" : "2.0"
    },
    "bufferViews" : [
        {
            "buffer" : 0,
            "byteLength" : 1584,
            "byteOffset" : 0,
            "target" : 34963
        },
        {
            "buffer" : 0,
            "byteLength" : 7608,
            "byteOffset" : 1584,
            "target" : 34962
        },
        {
            "buffer" : 0,
            "byteLength" : 7608,
            "byteOffset" : 9192,
            "target" : 34962
        },
        {
            "buffer" : 0,
            "byteLength" : 6048,
            "byteOffset" : 16800,
            "target" : 34963
        },
        {
            "buffer" : 0,
            "byteLength" : 21528,
            "byteOffset" : 22848,
            "target" : 34962
        },
        {
            "buffer" : 0,
            "byteLength" : 21528,
            "byteOffset" : 44376,
            "target" : 34962
        },
        {
            "buffer" : 0,
            "byteLength" : 4608,
            "byteOffset" : 65904,
            "target" : 34963
        },
        {
            "buffer" : 0,
            "byteLength" : 15852,
            "byteOffset" : 70512,
            "target" : 34962
        },
        {
            "buffer" : 0,
            "byteLength" : 15852,
            "byteOffset" : 86364,
            "target" : 34962
        }
    ],
    "buffers" : [
        {
            "byteLength" : 102216,
            "uri" : "data:application/octet-stream;base64,"
        }
    ],
    "materials" : [
        {
            "name" : "Chris_Shoe_Sole",
            "pbrMetallicRoughness" : {
                "baseColorFactor" : [
                    0.4823529315345425,
                    0.46274510119475565,
                    0.46274510119475565,
                    1.0
                ],
                "metallicFactor" : 0.0
            }
        },
        {
            "name" : "Color_E04",
            "pbrMetallicRoughness" : {
                "baseColorFactor" : [
                    1.0,
                    1.0,
                    0.19607840478420258,
                    1.0
                ],
                "metallicFactor" : 0.0
            }
        },
        {
            "name" : "Color_M09",
            "pbrMetallicRoughness" : {
                "baseColorFactor" : [
                    0.0,
                    0.0,
                    0.0,
                    1.0
                ],
                "metallicFactor" : 0.0
            }
        }
    ],
    "meshes" : [
        {
            "name" : "ID178",
            "primitives" : [
                {
                    "attributes" : {
                        "NORMAL" : 2,
                        "POSITION" : 1
                    },
                    "indices" : 0,
                    "material" : 2
                },
                {
                    "attributes" : {
                        "NORMAL" : 5,
                        "POSITION" : 4
                    },
                    "indices" : 3,
                    "material" : 1
                },
                {
                    "attributes" : {
                        "NORMAL" : 8,
                        "POSITION" : 7
                    },
                    "indices" : 6,
                    "material" : 0
                }
            ]
        }
    ],
    "nodes" : [
        {
            "mesh" : 0,
            "name" : "group_0.028",
            "scale" : [
                1.2799999713897705,
                1.2799999713897705,
                1.2799999713897705
            ],
            "translation" : [
                26.99090576171875,
                1337.8004150390625,
                -424.3862609863281
            ]
        },
        {
            "children" : [
                0,
                2
            ],
            "name" : "SketchUp",
            "scale" : [
                0.02539999969303608,
                0.02539999969303608,
                0.02539999969303608
            ]
        },
        {
            "name" : "skp_camera_Last_Saved_SketchUp_View",
            "rotation" : [
                0.31154972314834595,
                0.6786283850669861,
                -0.39518892765045166,
                0.5350009799003601
            ],
            "scale" : [
                1.0,
                0.9999999403953552,
                0.9999999403953552
            ],
            "translation" : [
                10053.5498046875,
                7283.236328125,
                -2008.4140625
            ]
        }
    ],
    "scene" : 0,
    "scenes" : [
        {
            "name" : "Scene",
            "nodes" : [
                1
            ]
        }
    ]
}
