{
  "asset": {
    "version": "2.0",
    "generator": "Sketchup glTF Exporter v1.2.6 by Centaur"
  },
  "scene": 0,
  "scenes": [
    {
      "nodes": [
        0
      ]
    }
  ],
  "samplers": [
    {
    }
  ],
  "nodes": [
    {
      "name": "root",
      "children": [
        1
      ]
    },
    {
      "mesh": 0
    }
  ],
  "materials": [
    {
      "pbrMetallicRoughness": {
        "baseColorFactor": [
          1.0,
          1.0,
          1.0,
          1.0
        ],
        "metallicFactor": 0.1,
        "roughnessFactor": 0.9
      },
      "name": "Colore M00",
      "doubleSided": true
    },
    {
      "pbrMetallicRoughness": {
        "baseColorFactor": [
          0.1332,
          0.0,
          0.0,
          1.0
        ],
        "metallicFactor": 0.1,
        "roughnessFactor": 0.9
      },
      "name": "Colore A08",
      "doubleSided": true
    },
    {
      "pbrMetallicRoughness": {
        "baseColorFactor": [
          0.1332,
          0.009,
          0.0037,
          1.0
        ],
        "metallicFactor": 0.1,
        "roughnessFactor": 0.9
      },
      "name": "Materiale26",
      "doubleSided": true
    },
    {
      "pbrMetallicRoughness": {
        "baseColorFactor": [
          0.2195,
          0.2195,
          0.2195,
          1.0
        ],
        "metallicFactor": 0.1,
        "roughnessFactor": 0.9
      },
      "name": "0132_GrigioChiaro",
      "doubleSided": true
    },
    {
      "pbrMetallicRoughness": {
        "baseColorTexture": {
          "index": 0
        },
        "metallicFactor": 0.1,
        "roughnessFactor": 0.9
      },
      "name": "Materiale42",
      "doubleSided": true
    },
    {
      "pbrMetallicRoughness": {
        "baseColorFactor": [
          0.2758,
          0.0824,
          0.0564,
          1.0
        ],
        "metallicFactor": 0.1,
        "roughnessFactor": 0.9
      },
      "name": "Materiale24",
      "doubleSided": true
    },
    {
      "pbrMetallicRoughness": {
        "baseColorFactor": [
          0.7667,
          0.7667,
          0.7667,
          1.0
        ],
        "metallicFactor": 0.1,
        "roughnessFactor": 0.9
      },
      "name": "Colore M01",
      "doubleSided": true
    },
    {
      "pbrMetallicRoughness": {
        "baseColorFactor": [
          0.0104,
          0.0104,
          0.0104,
          1.0
        ],
        "metallicFactor": 0.1,
        "roughnessFactor": 0.9
      },
      "name": "STEPS_DEFAULT_0",
      "doubleSided": true
    },
    {
      "pbrMetallicRoughness": {
        "baseColorFactor": [
          0.5732,
          0.5732,
          0.5732,
          1.0
        ],
        "metallicFactor": 0.1,
        "roughnessFactor": 0.9
      },
      "name": "Colore M02",
      "doubleSided": true
    },
    {
      "pbrMetallicRoughness": {
        "baseColorFactor": [
          0.4535,
          0.0119,
          0.0119,
          1.0
        ],
        "metallicFactor": 0.1,
        "roughnessFactor": 0.9
      },
      "name": "0023_Mattone",
      "doubleSided": true
    },
    {
      "pbrMetallicRoughness": {
        "baseColorTexture": {
          "index": 1
        },
        "metallicFactor": 0.1,
        "roughnessFactor": 0.9
      },
      "name": "Materiale36",
      "doubleSided": true
    },
    {
      "pbrMetallicRoughness": {
        "baseColorTexture": {
          "index": 2
        },
        "metallicFactor": 0.1,
        "roughnessFactor": 0.9
      },
      "name": "Materiale38",
      "doubleSided": true
    },
    {
      "pbrMetallicRoughness": {
        "baseColorTexture": {
          "index": 3
        },
        "metallicFactor": 0.1,
        "roughnessFactor": 0.9
      },
      "name": "Materiale32",
      "doubleSided": true
    },
    {
      "pbrMetallicRoughness": {
        "baseColorFactor": [
          0.142,
          0.142,
          0.142,
          1.0
        ],
        "metallicFactor": 0.1,
        "roughnessFactor": 0.9
      },
      "name": "0134_GrigioMedio",
      "doubleSided": true
    }
  ],
  "images": [
    {
      "bufferView": 0,
      "mimeType": "image/png"
    },
    {
      "bufferView": 1,
      "mimeType": "image/png"
    },
    {
      "bufferView": 2,
      "mimeType": "image/png"
    },
    {
      "bufferView": 3,
      "mimeType": "image/png"
    }
  ],
  "textures": [
    {
      "source": 0,
      "sampler": 0
    },
    {
      "source": 1,
      "sampler": 0
    },
    {
      "source": 2,
      "sampler": 0
    },
    {
      "source": 3,
      "sampler": 0
    }
  ],
  "meshes": [
    {
      "primitives": [
        {
          "attributes": {
            "POSITION": 0,
            "NORMAL": 1
          },
          "indices": 5,
          "mode": 4,
          "material": 0
        },
        {
          "attributes": {
            "POSITION": 0,
            "NORMAL": 1
          },
          "indices": 6,
          "mode": 4,
          "material": 1
        },
        {
          "attributes": {
            "POSITION": 0,
            "NORMAL": 1
          },
          "indices": 7,
          "mode": 4,
          "material": 2
        },
        {
          "attributes": {
            "POSITION": 0,
            "NORMAL": 1
          },
          "indices": 8,
          "mode": 4,
          "material": 3
        },
        {
          "attributes": {
            "POSITION": 2,
            "NORMAL": 3,
            "TEXCOORD_0": 4
          },
          "indices": 9,
          "mode": 4,
          "material": 4
        },
        {
          "attributes": {
            "POSITION": 0,
            "NORMAL": 1
          },
          "indices": 10,
          "mode": 4,
          "material": 5
        },
        {
          "attributes": {
            "POSITION": 0,
            "NORMAL": 1
          },
          "indices": 11,
          "mode": 4,
          "material": 6
        },
        {
          "attributes": {
            "POSITION": 0,
            "NORMAL": 1
          },
          "indices": 12,
          "mode": 4,
          "material": 7
        },
        {
          "attributes": {
            "POSITION": 0,
            "NORMAL": 1
          },
          "indices": 13,
          "mode": 4,
          "material": 8
        },
        {
          "attributes": {
            "POSITION": 0,
            "NORMAL": 1
          },
          "indices": 14,
          "mode": 4,
          "material": 9
        },
        {
          "attributes": {
            "POSITION": 2,
            "NORMAL": 3,
            "TEXCOORD_0": 4
          },
          "indices": 15,
          "mode": 4,
          "material": 10
        },
        {
          "attributes": {
            "POSITION": 2,
            "NORMAL": 3,
            "TEXCOORD_0": 4
          },
          "indices": 16,
          "mode": 4,
          "material": 11
        },
        {
          "attributes": {
            "POSITION": 2,
            "NORMAL": 3,
            "TEXCOORD_0": 4
          },
          "indices": 17,
          "mode": 4,
          "material": 12
        },
        {
          "attributes": {
            "POSITION": 0,
            "NORMAL": 1
          },
          "indices": 18,
          "mode": 4,
          "material": 13
        }
      ]
    }
  ],
  "accessors": [
    {
      "bufferView": 4,
      "componentType": 5126,
      "count": 19060,
      "type": "VEC3",
      "min": [
        -50.716860798612544,
        -8.87951046024682e-14,
        -1.1550582712516188e-14
      ],
      "max": [
        0.0006129237272066348,
        45.43004122798337,
        61.87937595840045
      ]
    },
    {
      "bufferView": 5,
      "componentType": 5126,
      "count": 19060,
      "type": "VEC3",
      "min": [
        -1.0,
        -1.0,
        -1.0
      ],
      "max": [
        1.0,
        1.0,
        1.0
      ]
    },
    {
      "bufferView": 6,
      "componentType": 5126,
      "count": 393,
      "type": "VEC3",
      "min": [
        -42.95781217331651,
        4.316203653368149,
        10.833355566264911
      ],
      "max": [
        -34.376736460487244,
        6.76028298970308,
        49.21479717098522
      ]
    },
    {
      "bufferView": 7,
      "componentType": 5126,
      "count": 393,
      "type": "VEC3",
      "min": [
        -0.99949038941744,
        -1.3500286042170638e-06,
        -0.8846993038641547
      ],
      "max": [
        0.9999786926888276,
        -7.439446504485072e-07,
        0.8907101532484839
      ]
    },
    {
      "bufferView": 8,
      "componentType": 5126,
      "count": 393,
      "type": "VEC2",
      "min": [
        74.63943549203799,
        -12.600606574411884
      ],
      "max": [
        3993.4372323253333,
        -1.9991270961862817
      ]
    },
    {
      "bufferView": 9,
      "componentType": 5123,
      "count": 6531,
      "type": "SCALAR"
    },
    {
      "bufferView": 9,
      "componentType": 5123,
      "count": 246,
      "type": "SCALAR",
      "byteOffset": 13062
    },
    {
      "bufferView": 9,
      "componentType": 5123,
      "count": 35424,
      "type": "SCALAR",
      "byteOffset": 13554
    },
    {
      "bufferView": 9,
      "componentType": 5123,
      "count": 4626,
      "type": "SCALAR",
      "byteOffset": 84402
    },
    {
      "bufferView": 10,
      "componentType": 5123,
      "count": 15,
      "type": "SCALAR"
    },
    {
      "bufferView": 9,
      "componentType": 5123,
      "count": 267,
      "type": "SCALAR",
      "byteOffset": 93654
    },
    {
      "bufferView": 9,
      "componentType": 5123,
      "count": 393,
      "type": "SCALAR",
      "byteOffset": 94188
    },
    {
      "bufferView": 9,
      "componentType": 5123,
      "count": 264,
      "type": "SCALAR",
      "byteOffset": 94974
    },
    {
      "bufferView": 9,
      "componentType": 5123,
      "count": 558,
      "type": "SCALAR",
      "byteOffset": 95502
    },
    {
      "bufferView": 9,
      "componentType": 5123,
      "count": 1275,
      "type": "SCALAR",
      "byteOffset": 96618
    },
    {
      "bufferView": 10,
      "componentType": 5123,
      "count": 318,
      "type": "SCALAR",
      "byteOffset": 30
    },
    {
      "bufferView": 10,
      "componentType": 5123,
      "count": 168,
      "type": "SCALAR",
      "byteOffset": 666
    },
    {
      "bufferView": 10,
      "componentType": 5123,
      "count": 168,
      "type": "SCALAR",
      "byteOffset": 1002
    },
    {
      "bufferView": 9,
      "componentType": 5123,
      "count": 9,
      "type": "SCALAR",
      "byteOffset": 99168
    }
  ],
  "bufferViews": [
    {
      "buffer": 0,
      "byteLength": 44077
    },
    {
      "buffer": 0,
      "byteOffset": 44077,
      "byteLength": 5843
    },
    {
      "buffer": 0,
      "byteOffset": 49920,
      "byteLength": 3060
    },
    {
      "buffer": 0,
      "byteOffset": 52980,
      "byteLength": 16667
    },
    {
      "buffer": 0,
      "byteOffset": 69648,
      "byteLength": 228720,
      "target": 34962,
      "byteStride": 12
    },
    {
      "buffer": 0,
      "byteOffset": 298368,
      "byteLength": 228720,
      "target": 34962,
      "byteStride": 12
    },
    {
      "buffer": 0,
      "byteOffset": 527088,
      "byteLength": 4716,
      "target": 34962,
      "byteStride": 12
    },
    {
      "buffer": 0,
      "byteOffset": 531804,
      "byteLength": 4716,
      "target": 34962,
      "byteStride": 12
    },
    {
      "buffer": 0,
      "byteOffset": 536520,
      "byteLength": 3144,
      "target": 34962,
      "byteStride": 8
    },
    {
      "buffer": 0,
      "byteOffset": 539664,
      "byteLength": 99186,
      "target": 34963
    },
    {
      "buffer": 0,
      "byteOffset": 638850,
      "byteLength": 1338,
      "target": 34963
    }
  ],
  "buffers": [
    {
      "uri": "data:application/octet-stream;base64,",
      "byteLength": 640188
    }
  ]
}