{
    "accessors" : [
        {
            "bufferView" : 0,
            "componentType" : 5123,
            "count" : 2304,
            "max" : [
                1136
            ],
            "min" : [
                0
            ],
            "type" : "SCALAR"
        },
        {
            "bufferView" : 1,
            "componentType" : 5126,
            "count" : 1137,
            "max" : [
                2090.315185546875,
                2090.315185546875,
                -60.9055061340332
            ],
            "min" : [
                0.0,
                -2.502395545889158e-06,
                -2090.315185546875
            ],
            "type" : "VEC3"
        },
        {
            "bufferView" : 2,
            "componentType" : 5126,
            "count" : 1137,
            "max" : [
                1.0,
                1.0,
                1.0
            ],
            "min" : [
                -1.0,
                -1.0,
                -1.0
            ],
            "type" : "VEC3"
        },
        {
            "bufferView" : 3,
            "componentType" : 5123,
            "count" : 3024,
            "max" : [
                1588
            ],
            "min" : [
                0
            ],
            "type" : "SCALAR"
        },
        {
            "bufferView" : 4,
            "componentType" : 5126,
            "count" : 1589,
            "max" : [
                2090.315185546875,
                2090.315185546875,
                2.3543479983345605e-06
            ],
            "min" : [
                0.0,
                -2.502395545889158e-06,
                -2090.315185546875
            ],
            "type" : "VEC3"
        },
        {
            "bufferView" : 5,
            "componentType" : 5126,
            "count" : 1589,
            "max" : [
                1.0,
                1.0,
                1.0
            ],
            "min" : [
                -1.0,
                -1.0,
                -1.0
            ],
            "type" : "VEC3"
        },
        {
            "bufferView" : 6,
            "componentType" : 5123,
            "count" : 792,
            "max" : [
                401
            ],
            "min" : [
                0
            ],
            "type" : "SCALAR"
        },
        {
            "bufferView" : 7,
            "componentType" : 5126,
            "count" : 402,
            "max" : [
                2029.4090576171875,
                2029.4090576171875,
                -60.9055061340332
            ],
            "min" : [
                60.90550994873047,
                60.9055061340332,
                -2029.4090576171875
            ],
            "type" : "VEC3"
        },
        {
            "bufferView" : 8,
            "componentType" : 5126,
            "count" : 402,
            "max" : [
                1.0,
                1.0,
                1.0
            ],
            "min" : [
                -1.0,
                -1.0,
                -1.0
            ],
            "type" : "VEC3"
        }
    ],
    "asset" : {
        "generator" : "Khronos Blender glTF 2.0 exporter",
        "version" : "2.0"
    },
    "bufferViews" : [
        {
            "buffer" : 0,
            "byteLength" : 4608,
            "byteOffset" : 0,
            "target" : 34963
        },
        {
            "buffer" : 0,
            "byteLength" : 13644,
            "byteOffset" : 4608,
            "target" : 34962
        },
        {
            "buffer" : 0,
            "byteLength" : 13644,
            "byteOffset" : 18252,
            "target" : 34962
        },
        {
            "buffer" : 0,
            "byteLength" : 6048,
            "byteOffset" : 31896,
            "target" : 34963
        },
        {
            "buffer" : 0,
            "byteLength" : 19068,
            "byteOffset" : 37944,
            "target" : 34962
        },
        {
            "buffer" : 0,
            "byteLength" : 19068,
            "byteOffset" : 57012,
            "target" : 34962
        },
        {
            "buffer" : 0,
            "byteLength" : 1584,
            "byteOffset" : 76080,
            "target" : 34963
        },
        {
            "buffer" : 0,
            "byteLength" : 4824,
            "byteOffset" : 77664,
            "target" : 34962
        },
        {
            "buffer" : 0,
            "byteLength" : 4824,
            "byteOffset" : 82488,
            "target" : 34962
        }
    ],
    "buffers" : [
        {
            "byteLength" : 87312,
            "uri" : "mystery.bin"
        }
    ],
    "materials" : [
        {
            "name" : "Chris_Shoe_Sole",
            "pbrMetallicRoughness" : {
                "baseColorFactor" : [
                    0.4823529315345425,
                    0.46274510119475565,
                    0.46274510119475565,
                    1.0
                ],
                "metallicFactor" : 0.0
            }
        },
        {
            "name" : "Color_E04",
            "pbrMetallicRoughness" : {
                "baseColorFactor" : [
                    1.0,
                    1.0,
                    0.19607840478420258,
                    1.0
                ],
                "metallicFactor" : 0.0
            }
        },
        {
            "name" : "Color_M09",
            "pbrMetallicRoughness" : {
                "baseColorFactor" : [
                    0.0,
                    0.0,
                    0.0,
                    1.0
                ],
                "metallicFactor" : 0.0
            }
        }
    ],
    "meshes" : [
        {
            "name" : "ID178",
            "primitives" : [
                {
                    "attributes" : {
                        "NORMAL" : 2,
                        "POSITION" : 1
                    },
                    "indices" : 0,
                    "material" : 0
                },
                {
                    "attributes" : {
                        "NORMAL" : 5,
                        "POSITION" : 4
                    },
                    "indices" : 3,
                    "material" : 1
                },
                {
                    "attributes" : {
                        "NORMAL" : 8,
                        "POSITION" : 7
                    },
                    "indices" : 6,
                    "material" : 2
                }
            ]
        }
    ],
    "nodes" : [
        {
            "mesh" : 0,
            "name" : "group_0.028",
            "scale" : [
                1.2799999713897705,
                1.2799999713897705,
                1.2799999713897705
            ],
            "translation" : [
                -1535.471923828125,
                -1636.143798828125,
                1016.7378540039062
            ]
        },
        {
            "children" : [
                0,
                2
            ],
            "name" : "SketchUp",
            "scale" : [
                0.02539999969303608,
                0.02539999969303608,
                0.02539999969303608
            ]
        },
        {
            "name" : "skp_camera_Last_Saved_SketchUp_View",
            "rotation" : [
                0.02042771875858307,
                -0.9461134672164917,
                0.3174024522304535,
                0.06089062616229057
            ],
            "scale" : [
                0.9999999403953552,
                0.9999998807907104,
                1.0
            ],
            "translation" : [
                -2331.5078125,
                19566.34765625,
                -14180.7294921875
            ]
        }
    ],
    "scene" : 0,
    "scenes" : [
        {
            "name" : "Scene",
            "nodes" : [
                1
            ]
        }
    ]
}
