{
    "accessors" : [
        {
            "bufferView" : 0,
            "componentType" : 5123,
            "count" : 2304,
            "max" : [
                1035
            ],
            "min" : [
                0
            ],
            "type" : "SCALAR"
        },
        {
            "bufferView" : 1,
            "componentType" : 5126,
            "count" : 1036,
            "max" : [
                1045.3096923828125,
                1055.21826171875,
                980.6648559570312
            ],
            "min" : [
                -1045.00537109375,
                -1035.0970458984375,
                -1048.7449951171875
            ],
            "type" : "VEC3"
        },
        {
            "bufferView" : 2,
            "componentType" : 5126,
            "count" : 1036,
            "max" : [
                1.0,
                1.0,
                1.0
            ],
            "min" : [
                -1.0,
                -1.0,
                -1.0
            ],
            "type" : "VEC3"
        },
        {
            "bufferView" : 3,
            "componentType" : 5123,
            "count" : 3024,
            "max" : [
                1367
            ],
            "min" : [
                0
            ],
            "type" : "SCALAR"
        },
        {
            "bufferView" : 4,
            "componentType" : 5126,
            "count" : 1368,
            "max" : [
                1045.3096923828125,
                1055.21826171875,
                1041.5703125
            ],
            "min" : [
                -1045.00537109375,
                -1035.0970458984375,
                -1048.7449951171875
            ],
            "type" : "VEC3"
        },
        {
            "bufferView" : 5,
            "componentType" : 5126,
            "count" : 1368,
            "max" : [
                1.0,
                1.0,
                1.0
            ],
            "min" : [
                -1.0,
                -1.0,
                -1.0
            ],
            "type" : "VEC3"
        },
        {
            "bufferView" : 6,
            "componentType" : 5123,
            "count" : 792,
            "max" : [
                342
            ],
            "min" : [
                0
            ],
            "type" : "SCALAR"
        },
        {
            "bufferView" : 7,
            "componentType" : 5126,
            "count" : 343,
            "max" : [
                984.403564453125,
                994.3120727539062,
                980.6648559570312
            ],
            "min" : [
                -984.0999145507812,
                -974.1915283203125,
                -987.8386840820312
            ],
            "type" : "VEC3"
        },
        {
            "bufferView" : 8,
            "componentType" : 5126,
            "count" : 343,
            "max" : [
                1.0,
                1.0,
                1.0
            ],
            "min" : [
                -1.0,
                -1.0,
                -1.0
            ],
            "type" : "VEC3"
        }
    ],
    "asset" : {
        "generator" : "Khronos Blender glTF 2.0 exporter",
        "version" : "2.0"
    },
    "bufferViews" : [
        {
            "buffer" : 0,
            "byteLength" : 4608,
            "byteOffset" : 0,
            "target" : 34963
        },
        {
            "buffer" : 0,
            "byteLength" : 12432,
            "byteOffset" : 4608,
            "target" : 34962
        },
        {
            "buffer" : 0,
            "byteLength" : 12432,
            "byteOffset" : 17040,
            "target" : 34962
        },
        {
            "buffer" : 0,
            "byteLength" : 6048,
            "byteOffset" : 29472,
            "target" : 34963
        },
        {
            "buffer" : 0,
            "byteLength" : 16416,
            "byteOffset" : 35520,
            "target" : 34962
        },
        {
            "buffer" : 0,
            "byteLength" : 16416,
            "byteOffset" : 51936,
            "target" : 34962
        },
        {
            "buffer" : 0,
            "byteLength" : 1584,
            "byteOffset" : 68352,
            "target" : 34963
        },
        {
            "buffer" : 0,
            "byteLength" : 4116,
            "byteOffset" : 69936,
            "target" : 34962
        },
        {
            "buffer" : 0,
            "byteLength" : 4116,
            "byteOffset" : 74052,
            "target" : 34962
        }
    ],
    "buffers" : [
        {
            "byteLength" : 78168,
            "uri" : "mystery.bin"
        }
    ],
    "materials" : [
        {
            "name" : "Chris_Shoe_Sole",
            "pbrMetallicRoughness" : {
                "baseColorFactor" : [
                    0.4823529315345425,
                    0.46274510119475565,
                    0.46274510119475565,
                    1.0
                ],
                "metallicFactor" : 0.0
            }
        },
        {
            "name" : "Color_E04",
            "pbrMetallicRoughness" : {
                "baseColorFactor" : [
                    1.0,
                    1.0,
                    0.19607840478420258,
                    1.0
                ],
                "metallicFactor" : 0.0
            }
        },
        {
            "name" : "Color_M09",
            "pbrMetallicRoughness" : {
                "baseColorFactor" : [
                    0.0,
                    0.0,
                    0.0,
                    1.0
                ],
                "metallicFactor" : 0.0
            }
        }
    ],
    "meshes" : [
        {
            "name" : "ID178",
            "primitives" : [
                {
                    "attributes" : {
                        "NORMAL" : 2,
                        "POSITION" : 1
                    },
                    "indices" : 0,
                    "material" : 0
                },
                {
                    "attributes" : {
                        "NORMAL" : 5,
                        "POSITION" : 4
                    },
                    "indices" : 3,
                    "material" : 1
                },
                {
                    "attributes" : {
                        "NORMAL" : 8,
                        "POSITION" : 7
                    },
                    "indices" : 6,
                    "material" : 2
                }
            ]
        }
    ],
    "nodes" : [
        {
            "mesh" : 0,
            "name" : "group_0.028",
            "scale" : [
                1.2799999713897705,
                1.2799999713897705,
                1.2799999713897705
            ],
            "translation" : [
                -357.7503356933594,
                54.266944885253906,
                -450.18121337890625
            ]
        },
        {
            "children" : [
                0,
                2
            ],
            "name" : "SketchUp",
            "scale" : [
                0.02539999969303608,
                0.02539999969303608,
                0.02539999969303608
            ]
        },
        {
            "name" : "skp_camera_Last_Saved_SketchUp_View",
            "rotation" : [
                0.02042771875858307,
                -0.9461134672164917,
                0.3174024522304535,
                0.06089062616229057
            ],
            "scale" : [
                0.9999999403953552,
                0.9999998807907104,
                1.0
            ],
            "translation" : [
                -2308.2421875,
                19801.279296875,
                -14521.2294921875
            ]
        }
    ],
    "scene" : 0,
    "scenes" : [
        {
            "name" : "Scene",
            "nodes" : [
                1
            ]
        }
    ]
}
